<svg width="195" height="195" viewBox="0 0 195 195" fill="none" xmlns="http://www.w3.org/2000/svg">
<path d="M97.5 15.6694C115.509 15.6694 132.78 22.8234 145.514 35.5574C158.248 48.2915 165.402 65.5625 165.402 83.5712C165.402 112.264 145.24 143.534 105.439 177.714C103.226 179.616 100.405 180.66 97.487 180.657C94.5694 180.655 91.7496 179.606 89.5398 177.701L86.9073 175.416C48.8684 142.127 29.5982 111.623 29.5982 83.5712C29.5982 65.5625 36.7521 48.2915 49.4862 35.5574C62.2202 22.8234 79.4913 15.6694 97.5 15.6694ZM97.5 57.4551C90.5736 57.4551 83.9309 60.2067 79.0331 65.1044C74.1354 70.0021 71.3839 76.6448 71.3839 83.5712C71.3839 90.4976 74.1354 97.1404 79.0331 102.038C83.9309 106.936 90.5736 109.687 97.5 109.687C104.426 109.687 111.069 106.936 115.967 102.038C120.865 97.1404 123.616 90.4976 123.616 83.5712C123.616 76.6448 120.865 70.0021 115.967 65.1044C111.069 60.2067 104.426 57.4551 97.5 57.4551Z" fill="#303030"/>
</svg>
